# xmcd
#
# Track frame offsets:
#	150
#	16827
#	32537
#	47488
#	64702
#	79714
#	96733
#	113905
#	138204
#	165460
#
# Disc length: 2459 seconds
#
# Revision: 2
# Processed by: cddbd v1.5.2PL0 Copyright (c) Steve Scherf et al.
# Submitted via: audiograbber 1.83.01
#
DISCID=7509990a
DTITLE=Charlie Landsborough - Under Blue Skies [Disc 2]
DYEAR=2008
DGENRE=Country
TTITLE0=When You're Not A Dream (Live)
TTITLE1=Little Bit Of Heaven (Live)
TTITLE2=Down To Earth (Live)
TTITLE3=Counterfeit Man (Live)
TTITLE4=Who Can Blame Him (Live)
TTITLE5=No Time At All (Live)
TTITLE6=You're Still Around (Live)
TTITLE7=Isle Of Innisfree (Live)
TTITLE8=Beatles Medley (I Feel Fine, Love Me Do, From Me To You, Let  It Be) (L
TTITLE8=ive)
TTITLE9=I Will Love You All My Life (Live)
EXTD=YEAR: 2008
EXTT0=
EXTT1=
EXTT2=
EXTT3=
EXTT4=
EXTT5=
EXTT6=
EXTT7=
EXTT8=
EXTT9=
PLAYORDER=
